<?xml version="1.0" encoding="utf-8"?>
<!-- Generator: Adobe Illustrator 25.3.1, SVG Export Plug-In . SVG Version: 6.00 Build 0)  -->
<svg version="1.1" id="Calque_1" xmlns="http://www.w3.org/2000/svg" xmlns:xlink="http://www.w3.org/1999/xlink" x="0px" y="0px"
	 viewBox="0 0 535 110" style="enable-background:new 0 0 535 110;" xml:space="preserve">
<style type="text/css">
	.st0{fill-rule:evenodd;clip-rule:evenodd;fill:#9A4747;}
</style>
<path id="B" class="st0" d="M57,5l12,38l40,0L77,67l12,38L57,81l-32,24l12-38L5,43l40,0L57,5z"/>
<g>
	<path id="B_1_" class="st0" d="M162,5l12,38l40,0l-32,24l12,38l-32-24l-32,24l12-38l-32-24l40,0L162,5z"/>
</g>
<g>
	<path id="B_2_" class="st0" d="M268,5l12,38l40,0l-32,24l12,38l-32-24l-32,24l12-38l-32-24l40,0L268,5z"/>
</g>
<g>
	<path id="B_3_" class="st0" d="M373,5l12,38l40,0l-32,24l12,38l-32-24l-32,24l12-38l-32-24l40,0L373,5z"/>
</g>
<g>
	<path id="B_4_" class="st0" d="M478,5l12,38l40,0l-32,24l12,38l-32-24l-32,24l12-38l-32-24l40,0L478,5z"/>
</g>
</svg>
