<svg xmlns="http://www.w3.org/2000/svg" viewBox="0 0 265.79 191.1"><defs><style>.cls-1{fill:#010101;}</style></defs><g id="Calque_2" data-name="Calque 2"><g id="Calque_1-2" data-name="Calque 1"><path class="cls-1" d="M0,157.63H6l10.37,27.66,10.42-27.66h6v32.92H28.63V163.16h-.09L18.26,190.55H14.52L4.24,163.16H4.15v27.39H0Z"/><path class="cls-1" d="M57.77,190.55H54.08v-3.78H54a8.29,8.29,0,0,1-7.75,4.33c-6.27,0-8.2-3.59-8.2-8.71V166.71H42v16.14a4.49,4.49,0,0,0,4.84,4.79c4.75,0,7.05-3.18,7.05-7.47V166.71h3.92Z"/><path class="cls-1" d="M62.15,166.71h3.69v5h.09c1.89-3.83,4.52-5.72,8.76-5.58v4.15c-6.31,0-8.62,3.59-8.62,9.63v10.61H62.15Z"/><path class="cls-1" d="M80.41,162.42H76.49v-4.79h3.92Zm-3.92,4.29h3.92v23.84H76.49Z"/><path class="cls-1" d="M105.44,183c-1.06,5.25-4.84,8.11-10.19,8.11-7.6,0-11.2-5.25-11.43-12.54,0-7.15,4.7-12.4,11.2-12.4,8.44,0,11,7.88,10.79,13.65H88c-.14,4.15,2.21,7.83,7.42,7.83,3.23,0,5.49-1.56,6.18-4.65Zm-3.78-6.64a6.85,6.85,0,0,0-6.87-6.73c-4.1,0-6.54,3.08-6.82,6.73Z"/><path class="cls-1" d="M108.71,157.63h3.92v32.92h-3.92Z"/><path class="cls-1" d="M129.42,157.63h4.38v14.15h17.33V157.63h4.38v32.92h-4.38V175.47H133.8v15.08h-4.38Z"/><path class="cls-1" d="M171,166.16c7.57,0,11.58,5.48,11.58,12.49s-4,12.45-11.58,12.45-11.57-5.48-11.57-12.45S163.39,166.16,171,166.16Zm0,21.48c4.11,0,7.43-3.22,7.43-9s-3.32-9-7.43-9-7.42,3.22-7.42,9S166.85,187.64,171,187.64Z"/><path class="cls-1" d="M185.75,166.71h3.69v3.5h.09a8.8,8.8,0,0,1,7.7-4.05c2.91,0,5.58,1.15,6.55,4.05a8.84,8.84,0,0,1,7.47-4.05c4.75,0,7.93,2,7.93,6.91v17.48h-3.92V174.92c0-2.95-.78-5.3-4.61-5.3s-6.22,2.39-6.22,6.08v14.85h-3.92V174.92c0-3.09-1-5.3-4.47-5.3a6.43,6.43,0,0,0-6.37,6.08v14.85h-3.92Z"/><path class="cls-1" d="M244,183c-1.06,5.25-4.84,8.11-10.19,8.11-7.61,0-11.2-5.25-11.43-12.54,0-7.15,4.7-12.4,11.2-12.4,8.44,0,11,7.88,10.79,13.65H226.56c-.14,4.15,2.21,7.83,7.42,7.83,3.23,0,5.49-1.56,6.18-4.65Zm-3.78-6.64a6.85,6.85,0,0,0-6.87-6.73c-4.1,0-6.55,3.08-6.82,6.73Z"/><path class="cls-1" d="M249.47,183c.14,3.51,3.18,4.61,6.41,4.61,2.44,0,5.76-.55,5.76-3.55s-3.87-3.55-7.79-4.42-7.79-2.17-7.79-6.73c0-4.8,4.75-6.78,8.9-6.78,5.25,0,9.45,1.66,9.77,7.47h-3.92c-.27-3-2.95-4-5.53-4-2.35,0-5.07.64-5.07,3,0,2.81,4.15,3.27,7.79,4.15,3.92.87,7.79,2.17,7.79,6.78,0,5.67-5.3,7.51-10.14,7.51-5.35,0-9.87-2.17-10.1-8.07Z"/><path class="cls-1" d="M134.17,56.65A93.13,93.13,0,0,1,132,67.25L116,121.84a28.55,28.55,0,0,0-1.4,7.49,4.36,4.36,0,0,0,1.72,3.74q2.41,1.85,7.62,1.84h1.52l-.57,2.35H88.67l.64-2.35H91a15.57,15.57,0,0,0,7.36-1.39,9,9,0,0,0,3.53-3.84c1-1.89,2.48-6.06,4.35-12.54l14.21-49.89-50.21,70H67.73L59.29,64l-16,56.15a44.71,44.71,0,0,0-2,9.14,5,5,0,0,0,2.46,4.06c1.43.89,4.17,1.28,8.57,1.57l-.69,2.35H23.29l.7-2.35H25.7q6.29,0,9.08-3.17,2-2.28,4.25-9.9L57.76,57.66a12.28,12.28,0,0,0-4-2.92,28.61,28.61,0,0,0-7-1.2l.64-2.35H68.74l8.2,71.67s42.91-60,49.67-73.82"/><path class="cls-1" d="M167.89,89.59h39.74l6.28-21.26a37.83,37.83,0,0,0,1.78-9.65,5,5,0,0,0-.79-2.83,4.7,4.7,0,0,0-2.45-1.74,23.64,23.64,0,0,0-6.47-.57l.63-2.35h34.66l-.76,2.35c-2.92,0-7.12.07-8.56.7a14.3,14.3,0,0,0-5.25,4.12q-2.08,3-4.25,10.47l-15.17,52a38.67,38.67,0,0,0-1.9,9.27c0,2.43,1.91,2.66,3.71,3.46,1.27.57,4.53,1.07,8.76,1.36l-.7,2.35H183.63l.89-2.35c3.3-.08,5.5-.38,6.6-.88a8.34,8.34,0,0,0,3.69-2.92q1.65-2.48,4.06-10.8L206.61,94H166.68l-7.8,26.34a37.86,37.86,0,0,0-1.84,9.27,4.27,4.27,0,0,0,1.65,3.65q1.65,1.25,8,1.68l-.5,2.35H132.41l.82-2.35a39.81,39.81,0,0,0,7.35-.7c1.84-.47,5.28-1.71,6.08-2.9q1.65-2.59,4.07-10.79l15.23-52a37.9,37.9,0,0,0,1.84-9.65c0-1.1-2.05-3.13-2.74-3.56a14.37,14.37,0,0,0-3.55-1.22,30.42,30.42,0,0,0-6.57-.57l.76-2.35h34L189,53.54a15,15,0,0,0-6.29.89,9.49,9.49,0,0,0-4.38,3.36q-1.91,2.79-4.19,10.54Z"/><path class="cls-1" d="M259.23,58.29C256,49.67,240.43-1.33,191,0c-51.14,1.4-67.86,55.59-70.25,65.82a1.15,1.15,0,0,0,1.12,1.4h9.15a1.16,1.16,0,0,0,1.12-.87C134.1,58.45,152.36,5,192.49,4.67,238.36,4.26,250.2,43.41,258,58.72Z"/><path class="cls-1" d="M26.58,90.59,24.63,95H0l2-4.38Z"/><path class="cls-1" d="M265.79,90.59l-2,4.38H239.21l1.95-4.38Z"/></g></g></svg>