<svg width="94" height="320" viewBox="0 0 94 320" fill="none" xmlns="http://www.w3.org/2000/svg">
<path d="M20.6995 80.49C17.5495 79.71 15.2395 79.32 15.2395 76.47C15.2395 74.7 16.8595 73.53 19.8895 73.53C23.2795 73.53 24.8995 75.03 25.2895 77.91H27.9895C27.6295 73.47 24.4495 71.13 19.8895 71.13C15.1495 71.13 12.5395 73.38 12.5395 76.77C12.5395 80.94 16.3795 82.05 19.5895 82.8C24.3895 83.91 25.9795 84.45 25.9795 87.39C25.9795 89.31 24.6595 91.02 20.9395 91.02C16.4395 91.02 14.6395 88.74 14.3395 85.8H11.6395C11.9395 90.72 15.8695 93.42 20.9395 93.42C26.3695 93.42 28.6795 90.51 28.6795 87.39C28.6795 82.5 25.5295 81.69 20.6995 80.49ZM42.2688 83.22H44.6688C44.3088 79.8 41.7288 77.28 37.9488 77.28C33.4788 77.28 30.5388 80.55 30.5388 85.35C30.5388 90.15 33.4788 93.42 37.9488 93.42C41.7288 93.42 44.4588 90.84 44.6688 87.36H42.2688C42.1488 89.19 41.0388 91.32 37.9488 91.32C34.3188 91.32 32.9388 88.23 32.9388 85.35C32.9388 82.47 34.3188 79.38 37.9488 79.38C41.0088 79.38 42.1488 81.54 42.2688 83.22ZM53.6554 77.28C51.4654 77.28 50.2354 78.72 49.4254 80.73H49.3654V77.7H46.9654V93H49.3654V84.84C49.3654 81.57 51.6754 79.23 55.0054 79.77H55.0654V77.37C54.6454 77.31 54.2254 77.28 53.6554 77.28ZM63.2927 93.42C58.6127 93.42 55.7927 90.12 55.7927 85.35C55.7927 80.58 58.6127 77.28 63.2927 77.28C67.9427 77.28 70.7627 80.58 70.7627 85.35C70.7627 90.12 67.9427 93.42 63.2927 93.42ZM63.2927 91.32C66.7127 91.32 68.3627 88.62 68.3627 85.35C68.3627 82.08 66.7127 79.38 63.2927 79.38C59.8427 79.38 58.1927 82.08 58.1927 85.35C58.1927 88.62 59.8427 91.32 63.2927 91.32ZM73.2761 71.55V93H75.6761V71.55H73.2761ZM78.8718 71.55V93H81.2718V71.55H78.8718Z" fill="black"/>
<rect x="29.75" y="0.75" width="34.5" height="62.5" rx="17.25" stroke="black" stroke-width="1.5"/>
<circle cx="47.5" cy="52.5" r="4.5" fill="black"/>
</svg>
