<?xml version="1.0" encoding="utf-8"?>
<!-- Generator: Adobe Illustrator 26.0.1, SVG Export Plug-In . SVG Version: 6.00 Build 0)  -->
<svg version="1.1" id="Calque_1" xmlns="http://www.w3.org/2000/svg" xmlns:xlink="http://www.w3.org/1999/xlink" x="0px" y="0px"
	 viewBox="0 0 24 22.9" style="enable-background:new 0 0 24 22.9;" xml:space="preserve">
<style type="text/css">
	.st0{fill:#FCF7EC;}
</style>
<path class="st0" d="M21,2H3C2.4,2,2,2.4,2,3v1c0,4.2,2.6,7.9,6.5,9.4l-3.4,7.2c-0.2,0.5,0,1.1,0.5,1.3s1.1,0,1.3-0.5c0,0,0,0,0,0
	l1.2-2.6h6c0.5,2.2,2.7,3.5,4.9,2.9c2.2-0.5,3.5-2.7,2.9-4.9s-2.7-3.5-4.9-2.9c-0.1,0-0.3,0.1-0.4,0.1l-0.8-0.8C19.6,11.7,22,8,22,4
	V3C22,2.4,21.6,2,21,2z M14.1,16.8H9.1l1.4-2.9C11,14,11.5,14,12,14c0.6,0,1.1-0.1,1.6-0.1l1.3,1.3C14.6,15.7,14.3,16.2,14.1,16.8z
	 M18,15.8c1.1,0,2,0.9,2,2c0,1.1-0.9,2-2,2s-2-0.9-2-2c0,0,0,0,0,0C16,16.7,16.9,15.8,18,15.8z"/>
</svg>
