<?xml version="1.0" encoding="utf-8"?>
<!-- Generator: Adobe Illustrator 26.0.1, SVG Export Plug-In . SVG Version: 6.00 Build 0)  -->
<svg version="1.1"
	 id="Calque_1" text-rendering="geometricPrecision" shape-rendering="geometricPrecision" image-rendering="optimizeQuality"
	 xmlns="http://www.w3.org/2000/svg" xmlns:xlink="http://www.w3.org/1999/xlink" x="0px" y="0px" viewBox="0 0 6553.6 6553.6"
	 style="enable-background:new 0 0 6553.6 6553.6;" xml:space="preserve">
<style type="text/css">
	.st0{fill-rule:evenodd;clip-rule:evenodd;fill:#FCF7EC;}
	.st1{font-family:'HelveticaNeue-Bold';}
	.st2{font-size:9.929697e-03px;}
</style>
<g>
	<path class="st0" d="M5932.8,1680.8v4256.7c0,278.7-228,506.7-506.7,506.7H1127.6c-278.7,0-506.7-228-506.7-506.7V1680.8H5932.8z
		 M3219.1,2155c993.1,0,1798.1,805.1,1798.1,1798.1c0,993.1-805,1798.1-1798.1,1798.1c-993,0-1798.1-805-1798.1-1798.1
		C1420.9,2960.1,2226,2155,3219.1,2155z"/>
	<path class="st0" d="M1127.6,109.4h4298.6c278.7,0,506.7,228,506.7,506.7v842H620.9v-842C620.9,337.4,848.8,109.4,1127.6,109.4z
		 M1311.3,571.3h829.6c139.4,0,253.3,114,253.3,253.3v37.7c0,139.4-113.9,253.3-253.3,253.3h-829.6
		c-139.3,0-253.3-113.9-253.3-253.3v-37.7C1058,685.3,1172,571.3,1311.3,571.3z M4687.3,633.2h697v453.7h-697V633.2z M2798.3,633.2
		H3252v453.7h-453.7V633.2z M3367.5,633.2h453.6v453.7h-453.6V633.2z"/>
	<path class="st0" d="M3219.1,2454.5c413.8,0,788.5,167.8,1059.7,439c271.2,271.2,439,645.9,439,1059.6
		c0,413.8-167.8,788.5-439,1059.7c-271.2,271.1-645.9,439-1059.7,439c-413.8,0-788.4-167.8-1059.6-439
		c-271.2-271.2-439-645.9-439-1059.7c0-413.7,167.8-788.4,439-1059.6C2430.6,2622.3,2805.2,2454.5,3219.1,2454.5z M1853.4,4084.4
		c394.8,140.4,863.2,221.8,1365.7,221.8c502.5,0,970.9-81.4,1365.7-221.8c4.1-43.2,6.3-87,6.3-131.3c0-378.7-153.7-721.8-401.8-970
		c-248.2-248.2-591.2-401.8-970.1-401.8c-378.8,0-721.8,153.6-970,401.8c-248.2,248.2-401.8,591.3-401.8,970
		C1847.2,3997.4,1849.4,4041.2,1853.4,4084.4z"/>
</g>
<text transform="matrix(1 0 0 1 0 6553.6299)" class="st1 st2">Created by Bagundas</text>
<text transform="matrix(1 0 0 1 0 6553.6396)" class="st1 st2">from the Noun Project</text>
</svg>
