<?xml version="1.0" encoding="utf-8"?>
<!-- Generator: Adobe Illustrator 26.0.1, SVG Export Plug-In . SVG Version: 6.00 Build 0)  -->
<svg version="1.1" id="Calque_1" xmlns="http://www.w3.org/2000/svg" xmlns:xlink="http://www.w3.org/1999/xlink" x="0px" y="0px"
	 viewBox="0 0 512 466" style="enable-background:new 0 0 512 466;" xml:space="preserve">
<style type="text/css">
	.st0{fill:#FCF7EC;}
</style>
<path class="st0" d="M93,238.1v203h322V235L256.2,112.4L93,238.1z M345.2,268.3L345.2,268.3c7.5,38.4-15.8,89.6-84.5,117.5
	c-0.1,0.1-0.3,0.1-0.4,0.2c-2.8,1-5.8,1-8.6,0c-0.1,0-0.2-0.1-0.4-0.1c-68.7-27.3-92-78.6-84.6-117.4c5.2-27.6,25.1-45.5,50.5-45.5
	c12.7,0,25.7,4.5,38.8,13.3c12.9-8.5,26.2-12.9,38.5-12.9C319.8,223.3,339.7,241,345.2,268.3z"/>
<path class="st0" d="M251.8,250.4c-11.8-8.8-23.8-13.5-34.6-13.5c-18.7,0-32.7,13.1-36.7,34.1c-6.3,33.1,14.6,77.2,75.5,101.6
	c44-18,84.3-56.3,75.5-101.6c-4.2-20.8-18.4-33.8-36.9-33.8c-10.7,0-22.6,4.5-34.5,13.1C257.6,252.2,254.3,252.2,251.8,250.4z"/>
<path class="st0" d="M44,186.9v71.7L252,98.1c2.5-1.9,6-1.9,8.5,0L468,258.6v-71.7L256.3,23L44,186.9z"/>
</svg>
