<?xml version="1.0" encoding="utf-8"?>
<!-- Generator: Adobe Illustrator 26.0.1, SVG Export Plug-In . SVG Version: 6.00 Build 0)  -->
<svg version="1.1"
	 id="Calque_1" xmlns:cc="http://creativecommons.org/ns#" xmlns:dc="http://purl.org/dc/elements/1.1/" xmlns:inkscape="http://www.inkscape.org/namespaces/inkscape" xmlns:rdf="http://www.w3.org/1999/02/22-rdf-syntax-ns#" xmlns:sodipodi="http://sodipodi.sourceforge.net/DTD/sodipodi-0.dtd" xmlns:svg="http://www.w3.org/2000/svg"
	 xmlns="http://www.w3.org/2000/svg" xmlns:xlink="http://www.w3.org/1999/xlink" x="0px" y="0px" viewBox="0 0 12.7 12.9"
	 style="enable-background:new 0 0 12.7 12.9;" xml:space="preserve">
<style type="text/css">
	.st0{fill:#FCF7EC;}
</style>
<g transform="translate(0,-284.29998)">
	<path class="st0" d="M6.2,284.8c-2,0.1-3.5,1.7-3.5,3.7c0,0.5,0.1,1,0.4,1.5l3.2,6.5l3.2-6.5c0.9-1.8,0.2-3.9-1.6-4.8
		C7.4,284.9,6.8,284.8,6.2,284.8z M6.3,287c0.8,0,1.4,0.6,1.5,1.4c0,0,0,0,0,0c0,0.8-0.6,1.4-1.4,1.5s-1.4-0.6-1.5-1.4
		c0,0,0,0,0-0.1C4.9,287.6,5.5,287,6.3,287z"/>
</g>
</svg>
