<?xml version="1.0" encoding="utf-8"?>
<!-- Generator: Adobe Illustrator 26.0.1, SVG Export Plug-In . SVG Version: 6.00 Build 0)  -->
<svg version="1.1" id="Calque_1" xmlns="http://www.w3.org/2000/svg" xmlns:xlink="http://www.w3.org/1999/xlink" x="0px" y="0px"
	 viewBox="0 0 32 22.3" style="enable-background:new 0 0 32 22.3;" xml:space="preserve">
<style type="text/css">
	.st0{fill-rule:evenodd;clip-rule:evenodd;fill:#FCF7EC;}
</style>
<g>
	<g>
		<path class="st0" d="M3,1.5c0.6,0,1,0.4,1,1v9h25c0.6,0,1,0.4,1,1v7c0,0.6-0.4,1-1,1s-1-0.4-1-1v-4H4v4c0,0.6-0.4,1-1,1
			s-1-0.4-1-1v-17C2,2,2.4,1.5,3,1.5z M7.5,5.5C8.9,5.5,10,6.6,10,8s-1.1,2.5-2.5,2.5S5,9.4,5,8S6.1,5.5,7.5,5.5z M26,5.5
			c1.1,0,2,0.9,2,2v3H11v-5H26z"/>
	</g>
</g>
</svg>
