<?xml version="1.0" encoding="utf-8"?>
<!-- Generator: Adobe Illustrator 26.0.1, SVG Export Plug-In . SVG Version: 6.00 Build 0)  -->
<svg version="1.1" xmlns="http://www.w3.org/2000/svg" xmlns:xlink="http://www.w3.org/1999/xlink" x="0px" y="0px"
	 viewBox="0 0 100 102.6" style="enable-background:new 0 0 100 102.6;" xml:space="preserve">
<style type="text/css">
	.st0{fill:#FCF7EC;}
</style>
<g id="Calque_2">
</g>
<g id="Calque_1">
	<g>
		<path class="st0" d="M31.7,25.8l1,2.4c0.5,1.2,1.6,1.9,2.8,1.9c0.4,0,0.8-0.1,1.2-0.2c1.6-0.7,2.3-2.5,1.6-4l-1-2.4
			c-0.7-1.6-0.4-3.5,0.7-4.9C40.9,15,41.2,9.9,38.8,6l-1.2-2c-0.9-1.4-2.8-1.9-4.2-1c-1.4,0.9-1.9,2.8-1,4.2l1.2,2
			c1.1,1.7,0.9,4-0.3,5.5C30.7,17.9,30.1,22.1,31.7,25.8z"/>
		<path class="st0" d="M46.1,25.9l1,2.4c0.5,1.2,1.6,1.9,2.8,1.9c0.4,0,0.8-0.1,1.2-0.2c1.6-0.7,2.3-2.5,1.6-4l-1-2.4
			c-0.7-1.6-0.4-3.5,0.7-4.9c2.9-3.6,3.2-8.7,0.8-12.6L52,4c-0.9-1.4-2.8-1.9-4.2-1s-1.9,2.8-1,4.2l1.2,2c1.1,1.7,0.9,4-0.3,5.5
			C45.1,17.9,44.5,22.1,46.1,25.9z"/>
		<path class="st0" d="M60.4,25.8l1,2.4c0.5,1.2,1.6,1.9,2.8,1.9c0.4,0,0.8-0.1,1.2-0.2c1.6-0.7,2.3-2.5,1.6-4l-1-2.4
			c-0.7-1.6-0.4-3.5,0.7-4.9C69.6,15,70,9.9,67.5,5.9l-1.2-2c-0.9-1.4-2.8-1.9-4.2-1s-1.9,2.8-1,4.2l1.2,2c1.1,1.7,0.9,4-0.3,5.5
			C59.4,17.8,58.8,22.1,60.4,25.8z"/>
		<path class="st0" d="M71.1,88H52.9c-0.7,0-1.3,0.6-1.3,1.3v6.9c0,0.7,0.6,1.3,1.3,1.3h18.3c0.7,0,1.3-0.6,1.3-1.3v-6.9
			C72.4,88.6,71.9,88,71.1,88z"/>
		<path class="st0" d="M47.1,88H28.9c-0.7,0-1.3,0.6-1.3,1.3v6.9c0,0.7,0.6,1.3,1.3,1.3h18.3c0.7,0,1.3-0.6,1.3-1.3v-6.9
			C48.4,88.6,47.9,88,47.1,88z"/>
		<path class="st0" d="M71.1,75.4h-7.7c-0.7,0-1.3,0.6-1.3,1.3v6.9c0,0.7,0.6,1.3,1.3,1.3h7.7c0.7,0,1.3-0.6,1.3-1.3v-6.9
			C72.4,76,71.9,75.4,71.1,75.4z"/>
		<path class="st0" d="M41,76.7v6.9c0,0.7,0.6,1.3,1.3,1.3h15.4c0.7,0,1.3-0.6,1.3-1.3v-6.9c0-0.7-0.6-1.3-1.3-1.3H42.3
			C41.6,75.4,41,76,41,76.7z"/>
		<path class="st0" d="M27.6,83.6c0,0.7,0.6,1.3,1.3,1.3h7.7c0.7,0,1.3-0.6,1.3-1.3v-6.9c0-0.7-0.6-1.3-1.3-1.3h-7.7
			c-0.7,0-1.3,0.6-1.3,1.3C27.6,76.7,27.6,83.6,27.6,83.6z"/>
		<path class="st0" d="M71.1,62.8H52.9c-0.7,0-1.3,0.6-1.3,1.3V71c0,0.7,0.6,1.3,1.3,1.3h18.3c0.7,0,1.3-0.6,1.3-1.3v-6.9
			C72.4,63.4,71.9,62.8,71.1,62.8z"/>
		<path class="st0" d="M27.6,71c0,0.7,0.6,1.3,1.3,1.3h18.3c0.7,0,1.3-0.6,1.3-1.3v-6.9c0-0.7-0.6-1.3-1.3-1.3H28.9
			c-0.7,0-1.3,0.6-1.3,1.3V71z"/>
		<path class="st0" d="M71.1,50.2h-7.7c-0.7,0-1.3,0.6-1.3,1.3v6.9c0,0.7,0.6,1.3,1.3,1.3h7.7c0.7,0,1.3-0.6,1.3-1.3v-6.9
			C72.4,50.7,71.9,50.2,71.1,50.2z"/>
		<path class="st0" d="M57.7,59.6c0.7,0,1.3-0.6,1.3-1.3v-6.9c0-0.7-0.6-1.3-1.3-1.3H42.3c-0.7,0-1.3,0.6-1.3,1.3v6.9
			c0,0.7,0.6,1.3,1.3,1.3H57.7z"/>
		<path class="st0" d="M77.8,37.6H22.2c-0.7,0-1.3,0.6-1.3,1.3v6.9c0,0.7,0.6,1.3,1.3,1.3h55.5c0.7,0,1.3-0.6,1.3-1.3v-6.9
			C79,38.1,78.5,37.6,77.8,37.6z"/>
		<path class="st0" d="M28.9,59.6h7.7c0.7,0,1.3-0.6,1.3-1.3v-6.9c0-0.7-0.6-1.3-1.3-1.3h-7.7c-0.7,0-1.3,0.6-1.3,1.3v6.9
			C27.6,59.1,28.1,59.6,28.9,59.6z"/>
	</g>
</g>
</svg>
