<?xml version="1.0" encoding="utf-8"?>
<!-- Generator: Adobe Illustrator 26.0.1, SVG Export Plug-In . SVG Version: 6.00 Build 0)  -->
<svg version="1.1" xmlns="http://www.w3.org/2000/svg" xmlns:xlink="http://www.w3.org/1999/xlink" x="0px" y="0px"
	 viewBox="0 0 100 84.2" style="enable-background:new 0 0 100 84.2;" xml:space="preserve">
<style type="text/css">
	.st0{fill:#FCF7EC;}
</style>
<g id="Calque_2">
</g>
<g id="Calque_1">
	<g>
		<path class="st0" d="M25.2,69.7c2.1-1.7,3.3-4.2,3.3-6.7s-1.2-5-3.3-6.7c-1.1-0.9-2.8-0.7-3.7,0.4c-0.9,1.1-0.7,2.8,0.4,3.7
			c0.9,0.7,1.4,1.7,1.4,2.6c0,1-0.5,1.9-1.4,2.6c-2.1,1.7-3.3,4.2-3.3,6.7s1.2,5,3.3,6.7c0.5,0.4,1.1,0.6,1.7,0.6c0.8,0,1.5-0.3,2-1
			c0.9-1.1,0.7-2.8-0.4-3.7c-0.9-0.7-1.4-1.7-1.4-2.6S24.3,70.4,25.2,69.7z"/>
		<path class="st0" d="M42.9,69.7c2.1-1.7,3.3-4.2,3.3-6.7s-1.2-5-3.3-6.7c-1.1-0.9-2.8-0.7-3.7,0.4s-0.7,2.8,0.4,3.7
			c0.9,0.7,1.4,1.7,1.4,2.6c0,1-0.5,1.9-1.4,2.6c-2.1,1.7-3.3,4.2-3.3,6.7s1.2,5,3.3,6.7c0.5,0.4,1.1,0.6,1.7,0.6c0.8,0,1.5-0.3,2-1
			c0.9-1.1,0.7-2.8-0.4-3.7c-0.9-0.7-1.4-1.7-1.4-2.6S41.9,70.4,42.9,69.7z"/>
		<path class="st0" d="M60.5,69.7c2.1-1.7,3.3-4.2,3.3-6.7s-1.2-5-3.3-6.7c-1.1-0.9-2.8-0.7-3.7,0.4s-0.7,2.8,0.4,3.7
			c0.9,0.7,1.4,1.7,1.4,2.6c0,1-0.5,1.9-1.4,2.6c-2.1,1.7-3.3,4.2-3.3,6.7s1.2,5,3.3,6.7c0.5,0.4,1.1,0.6,1.7,0.6c0.8,0,1.5-0.3,2-1
			c0.9-1.1,0.7-2.8-0.4-3.7c-0.9-0.7-1.4-1.7-1.4-2.6C59.1,71.4,59.6,70.4,60.5,69.7z"/>
		<path class="st0" d="M78.1,69.7c2.1-1.7,3.3-4.2,3.3-6.7s-1.2-5-3.3-6.7c-1.1-0.9-2.8-0.7-3.7,0.4c-0.9,1.1-0.7,2.8,0.4,3.7
			c0.9,0.7,1.4,1.7,1.4,2.6c0,1-0.5,1.9-1.4,2.6c-2.1,1.7-3.3,4.2-3.3,6.7s1.2,5,3.3,6.7c0.5,0.4,1.1,0.6,1.7,0.6c0.8,0,1.5-0.3,2-1
			c0.9-1.1,0.7-2.8-0.4-3.7c-0.9-0.7-1.4-1.7-1.4-2.6S77.2,70.4,78.1,69.7z"/>
		<path class="st0" d="M92.4,5.6H7.6c-2.8,0-5.1,2.3-5.1,5.1v33.7c0,2.8,2.3,5.1,5.1,5.1h84.8c2.8,0,5.1-2.3,5.1-5.1V10.7
			C97.5,7.9,95.2,5.6,92.4,5.6z M83.3,14.4h2.4c1.5,0,2.6,1.2,2.6,2.6s-1.2,2.6-2.6,2.6h-2.4c-1.5,0-2.6-1.2-2.6-2.6
			C80.7,15.6,81.9,14.4,83.3,14.4z M71.3,14.4h2.4c1.5,0,2.6,1.2,2.6,2.6s-1.2,2.6-2.6,2.6h-2.4c-1.5,0-2.6-1.2-2.6-2.6
			C68.7,15.6,69.8,14.4,71.3,14.4z M92.2,44.3h-8.9v-4.2c0-2.3-1.9-4.2-4.2-4.2H20.9c-2.3,0-4.2,1.9-4.2,4.2v4.2H7.8V27.7h84.5v16.6
			H92.2z"/>
	</g>
</g>
</svg>
