<?xml version="1.0" encoding="utf-8"?>
<!-- Generator: Adobe Illustrator 26.0.1, SVG Export Plug-In . SVG Version: 6.00 Build 0)  -->
<svg version="1.1" id="Calque_1" xmlns="http://www.w3.org/2000/svg" xmlns:xlink="http://www.w3.org/1999/xlink" x="0px" y="0px"
	 viewBox="0 0 67 49" style="enable-background:new 0 0 67 49;" xml:space="preserve">
<style type="text/css">
	.st0{fill:#FCF7EC;}
</style>
<g>
	<path class="st0" d="M63.5,41.3h-1.3V15.9c3.3-1.8,2.1-7.3-2-7.3c-2,0-3.7,1.6-3.9,3.6c-3.7,2.2-7.7,0.9-9.9-2.3
		c0.1-0.1,0.6-0.5,0.9-1.4l0,0c1.1-2.8-1-5.4-3.6-5.4c-2.9,0-4.7,3.1-3.6,5.4l0,0c0.2,0.4,0.5,0.9,0.8,1.2c0,0.1,0.7,0.5,0.7,0.6
		c0.1,0,0.1,0.1,0.2,0.1v20H25.7V10.2c0.1,0,0.5-0.3,0.7-0.5c0.3-0.1,0.7-1,0.9-1.2l0,0c1.1-2.4-0.7-5.4-3.6-5.4
		c-2.6,0-4.7,2.6-3.6,5.4l0,0C20.3,9,20.8,9.6,21,9.8l0.1,0.1c-2.2,3.2-6.2,4.5-9.9,2.3C10.5,6.6,2,8,3.3,13.4
		c0.2,1,0.8,1.9,1.9,2.5v25.4H3.5c-0.5,0-1,0.2-1.4,0.6c-0.4,0.4-0.6,0.8-0.6,1.4c0,1.1,0.9,2,2,2h60.1c0.5,0,1-0.2,1.4-0.6
		c0.4-0.4,0.6-0.9,0.6-1.4C65.5,42.2,64.6,41.3,63.5,41.3z M21.8,30.3L21.8,30.3l-12.2,11H9.1V15.9c0.7-0.4,1.3-1.1,1.6-1.8
		c4,2.1,8.4,1.1,11.1-2.3C21.8,11.8,21.8,30.3,21.8,30.3z M58.4,41.3L58.4,41.3l-12.5-11l0,0V12c2.8,3.4,7.2,4.2,10.9,2.1
		c0.3,0.8,1.2,1.6,1.6,1.8l0,0V41.3z"/>
</g>
</svg>
