<?xml version="1.0" encoding="utf-8"?>
<!-- Generator: Adobe Illustrator 26.0.1, SVG Export Plug-In . SVG Version: 6.00 Build 0)  -->
<svg version="1.1" xmlns="http://www.w3.org/2000/svg" xmlns:xlink="http://www.w3.org/1999/xlink" x="0px" y="0px"
	 viewBox="0 0 100 101.3" style="enable-background:new 0 0 100 101.3;" xml:space="preserve">
<style type="text/css">
	.st0{fill:#FCF7EC;}
</style>
<g id="Calque_2">
</g>
<g id="Calque_1">
	<g>
		<path class="st0" d="M96.9,70.5c-3.9,1-7.7,4-11.2,7.6c-0.3,0.3-0.9,0-0.8-0.4c1.3-4.9,2.3-10.1,2-13.4c0-0.4-0.6-0.5-0.8-0.1
			c-1.4,2.8-4,7.5-6.6,12c-0.2,0.4-0.8,0.2-0.8-0.2c0-1.6,0-3.7,0.1-5.3c0-0.5-0.6-0.7-0.8-0.3c-1.1,1.5-2.2,3.6-3.3,5.9
			c-0.2,0.4-0.9,0.3-0.9-0.2c0.3-5.3,0.9-11.3,1.2-14.8c0-0.5-0.6-0.7-0.8-0.3c-1.7,3.1-4.8,9.6-6.4,12.9c-0.2,0.4-0.9,0.3-0.9-0.2
			c0.1-4.3,0.1-8.5-0.4-11.2c-0.1-0.5-0.7-0.5-0.9,0c-1.1,4.2-4,10.5-5.6,13.7c-0.2,0.4-0.9,0.3-0.9-0.2c0.2-4.5,0.1-8.8-0.6-11.7
			c-0.1-0.4-0.8-0.4-0.9,0c-0.9,3.5-2.7,10.7-3.5,13.6c-0.1,0.4-0.7,0.5-0.9,0.1c-0.1-0.3-0.2-0.6-0.3-0.9c-0.7-2.3-1-4.7-1-7.2
			v-9.6c2.2,0,6.9-0.4,9.9-3.4c3.2-3.2,3.4-8.4,3.4-10.3c0-0.4-0.4-0.8-0.8-0.8c-1.9,0-7.1,0.2-10.3,3.4c-1,1-1.7,2.2-2.2,3.5v-9
			c2-0.7,3.5-2.4,4.1-4.6c2.5,1.5,5.8,1.3,7.8-0.8c2.1-2.1,2.3-5.3,0.8-7.8c2.9-0.7,5-3.2,5-6.1s-2.1-5.3-5-6.1
			c1.5-2.5,1.3-5.8-0.8-7.8c-2.1-2.1-5.3-2.3-7.8-0.8c-0.7-2.9-3.2-5-6.1-5c-2.9,0-5.3,2.1-6.1,5C41.3,8.2,38,8.4,36,10.5
			c-2.1,2.1-2.3,5.3-0.8,7.8c-2.9,0.7-5,3.2-5,6.1s2.1,5.3,5,6.1c-1.5,2.5-1.3,5.8,0.8,7.8c2.1,2.1,5.3,2.3,7.8,0.8
			c0.6,2.2,2.1,3.9,4.1,4.6v9c-0.5-1.3-1.2-2.5-2.2-3.5c-3.2-3.2-8.4-3.4-10.3-3.4c-0.4,0-0.8,0.4-0.8,0.8c0,1.9,0.2,7.1,3.4,10.3
			c3,3,7.8,3.4,9.9,3.4V69c0,2.3-0.3,4.7-0.9,6.9c-0.2,0.8-0.5,1.6-0.8,2.3c-0.2,0.4-0.7,0.3-0.8-0.1c-1.2-4.4-2.2-11-2.8-14.2
			c-0.1-0.5-0.7-0.5-0.9,0c-1,3.7-2.7,8.8-5.3,15.6c-0.2,0.5-0.9,0.3-0.9-0.2c0.1-6.8-0.2-12.3-0.1-16.1c0-0.4-0.6-0.6-0.8-0.2
			c-2.1,3.2-4.1,8.5-5.9,15.6c-0.1,0.5-0.8,0.4-0.9-0.1c-0.5-4-1.3-7.8-2.5-10.8c-0.2-0.4-0.8-0.3-0.9,0.1c-0.2,2.7-0.6,6.1-1.5,9.3
			c-0.1,0.4-0.7,0.4-0.9,0c-2.2-6.3-4.4-12.1-5.6-15.8c-0.1-0.4-0.7-0.4-0.9,0c-1.1,3.8-1.2,10.1-0.9,16.3c0,0.4-0.5,0.6-0.8,0.3
			c-3.4-3.5-7.1-6.3-10.9-7.3c-0.4-0.1-0.7,0.4-0.4,0.8C9.9,78.9,12.9,87.2,14,91.5l-4.6,1.9c-1,0.4-0.7,2,0.4,2h80.5
			c1.1,0,1.4-1.5,0.4-2L86,91.5c1.1-4.3,4.1-12.6,11.4-20.2C97.7,71,97.4,70.4,96.9,70.5z M39.8,24.3c0-5.6,4.6-10.2,10.2-10.2
			s10.2,4.6,10.2,10.2S55.6,34.5,50,34.5S39.8,29.9,39.8,24.3z"/>
		<path class="st0" d="M50,18.2c-3.4,0-6.1,2.7-6.1,6.1s2.7,6.1,6.1,6.1c3.4,0,6.1-2.7,6.1-6.1S53.4,18.2,50,18.2z"/>
	</g>
</g>
</svg>
