<?xml version="1.0" encoding="utf-8"?>
<!-- Generator: Adobe Illustrator 26.0.1, SVG Export Plug-In . SVG Version: 6.00 Build 0)  -->
<svg version="1.1" id="Calque_1" xmlns="http://www.w3.org/2000/svg" xmlns:xlink="http://www.w3.org/1999/xlink" x="0px" y="0px"
	 viewBox="0 0 68 71.1" style="enable-background:new 0 0 68 71.1;" xml:space="preserve">
<style type="text/css">
	.st0{fill:#FCF7EC;}
</style>
<desc>Created with Sketch.</desc>
<g>
	<g transform="translate(-536.000000, -1136.000000)">
		<path class="st0" d="M595.7,1154c-0.4,1.6-1.3,3-2.5,4h6.7c2.2,0,4,1.8,4,4s-1.8,4-4,4h-60c-2.2,0-4-1.8-4-4s1.8-4,4-4h40.7
			c-1.7-1.5-2.7-3.6-2.7-6v-12c0-1.1,0.9-2,2-2h14c1.1,0,2,0.9,2,2v2h2c3.3,0,6,2.7,6,6s-2.7,6-6,6H595.7L595.7,1154z M596,1150h2
			c1.1,0,2-0.9,2-2s-0.9-2-2-2h-2V1150z M554,1190v-16c0-1.1,0.9-2,2-2s2,0.9,2,2v21c0,5-4,9-9,9s-9-4-9-9v-3c0-1.1,0.9-2,2-2H554z
			 M570,1184.4c0-0.1,0-0.2,0-0.4v-10c0-1.1,0.9-2,2-2s2,0.9,2,2v10c0,0.1,0,0.3,0,0.4c3,1.2,5,5.1,5,9.6c0,5.4-2.9,10-7,10
			s-7-4.6-7-10C565,1189.5,567,1185.6,570,1184.4L570,1184.4z M590,1184.4c0-0.1,0-0.2,0-0.4v-10c0-1.1,0.9-2,2-2s2,0.9,2,2v10
			c0,0.1,0,0.3,0,0.4c3,1.2,5,5.1,5,9.6c0,5.4-2.9,10-7,10s-7-4.6-7-10C585,1189.5,587,1185.6,590,1184.4L590,1184.4z M544,1147h26
			c1.1,0,2,0.9,2,2c0,3.3-2.7,6-6,6h-18c-3.3,0-6-2.7-6-6C542,1147.9,542.9,1147,544,1147z M544,1136h26c1.1,0,2,0.9,2,2
			c0,3.3-2.7,6-6,6h-18c-3.3,0-6-2.7-6-6C542,1136.9,542.9,1136,544,1136z"/>
	</g>
</g>
</svg>
