<?xml version="1.0" encoding="utf-8"?>
<!-- Generator: Adobe Illustrator 26.0.1, SVG Export Plug-In . SVG Version: 6.00 Build 0)  -->
<svg version="1.1" xmlns="http://www.w3.org/2000/svg" xmlns:xlink="http://www.w3.org/1999/xlink" x="0px" y="0px"
	 viewBox="0 0 100 100" style="enable-background:new 0 0 100 100;" xml:space="preserve">
<style type="text/css">
	.st0{fill:#FCF7EC;}
</style>
<g id="Calque_2">
</g>
<g id="Calque_1">
	<g>
		<path class="st0" d="M79.4,2.5H20.6c-10,0-18.1,8.1-18.1,18v58.9c0,10,8.1,18.1,18.1,18.1h58.9c10,0,18.1-8.1,18.1-18.1V20.5
			C97.5,10.6,89.4,2.5,79.4,2.5z M88,79.4c0,4.7-3.8,8.6-8.6,8.6H20.6c-4.7,0-8.6-3.8-8.6-8.6V20.5c0-4.7,3.8-8.5,8.6-8.5h58.9
			c4.7,0,8.6,3.8,8.6,8.5L88,79.4L88,79.4z"/>
		<path class="st0" d="M51.3,22.5H38.8c-2.6,0-4.8,2.1-4.8,4.8v48.3c0,1,0.8,1.9,1.9,1.9h5.7c1,0,1.9-0.8,1.9-1.9V57.2h8.3
			c10,0,18-8.4,17.3-18.5C68.6,29.5,60.5,22.5,51.3,22.5z M51.9,47.7h-8.3V32h8.3c4.3,0,7.8,3.5,7.8,7.8
			C59.7,44.2,56.2,47.7,51.9,47.7z"/>
	</g>
</g>
</svg>
