<?xml version="1.0" encoding="utf-8"?>
<!-- Generator: Adobe Illustrator 26.0.1, SVG Export Plug-In . SVG Version: 6.00 Build 0)  -->
<svg version="1.1" xmlns="http://www.w3.org/2000/svg" xmlns:xlink="http://www.w3.org/1999/xlink" x="0px" y="0px"
	 viewBox="0 0 100 91.1" style="enable-background:new 0 0 100 91.1;" xml:space="preserve">
<style type="text/css">
	.st0{fill:#FCF7EC;}
</style>
<g id="Calque_2">
</g>
<g id="Calque_1">
	<g>
		<path class="st0" d="M85.6,16.5c0-1.5-1.2-2.7-2.7-2.7H80v5.5h2.9C84.4,19.2,85.6,18,85.6,16.5z"/>
		<path class="st0" d="M71.5,34.9h8.1v14.7l5.3,1V34.9H93c2.3,0,4.1-1.9,4.1-4.1V9.2c0-2.3-1.9-4.1-4.1-4.1H71.5
			c-2.3,0-4.1,1.9-4.1,4.1v21.5C67.3,33,69.2,34.9,71.5,34.9z M76.7,10.4h6.2c3.3,0,6,2.7,6,6s-2.7,6-6,6H80v7h-3.3V10.4z"/>
		<path class="st0" d="M92,56.9l-19.6-3.6c-0.2,0-0.4-0.2-0.5-0.3C70,50.7,57.9,38,50,38H22.3c-6.5,0-12.4,6.1-16.1,11.2
			c-2.4,3.2-3.6,7.1-3.6,11.1v11.6c0,3.7,3,6.7,6.7,6.7h1.5C12,83.4,16.3,87,21.5,87s9.5-3.6,10.7-8.4h36.1C69.5,83.4,73.8,87,79,87
			s9.5-3.6,10.7-8.4h0.2c3.3,0,6.2-2.5,6.6-5.8l1.1-8.4C97.9,60.8,95.5,57.5,92,56.9z M21.3,81.7c-3.2,0-5.8-2.6-5.8-5.8
			c0-3.2,2.6-5.8,5.8-5.8s5.8,2.6,5.8,5.8C27.2,79.1,24.6,81.7,21.3,81.7z M34.4,54.9H17c-0.9,0-1.5-0.9-1-1.7
			c2.6-4.6,9.1-9.1,12.3-9.1h4.4c0.6,0,1.1,0.4,1.2,1l1.7,8.4C35.7,54.2,35.1,54.9,34.4,54.9z M62.4,54.9H43.2c-0.6,0-1.1-0.4-1.2-1
			l-1.7-8.4c-0.1-0.7,0.4-1.4,1.2-1.4H50c2.9,0,8.9,4.6,13.2,8.7C64,53.6,63.5,54.9,62.4,54.9z M78.8,81.7c-3.2,0-5.8-2.6-5.8-5.8
			c0-3.2,2.6-5.8,5.8-5.8c3.2,0,5.8,2.6,5.8,5.8C84.6,79.1,82,81.7,78.8,81.7z"/>
	</g>
</g>
</svg>
