<?xml version="1.0" encoding="utf-8"?>
<!-- Generator: Adobe Illustrator 26.0.1, SVG Export Plug-In . SVG Version: 6.00 Build 0)  -->
<svg version="1.1" id="Calque_1" xmlns="http://www.w3.org/2000/svg" xmlns:xlink="http://www.w3.org/1999/xlink" x="0px" y="0px"
	 viewBox="0 0 64 47.5" style="enable-background:new 0 0 64 47.5;" xml:space="preserve">
<style type="text/css">
	.st0{fill:#FCF7EC;}
</style>
<path class="st0" d="M23.7,12.9c0,4.6,3.7,8.3,8.3,8.3s8.3-3.7,8.3-8.3S36.6,4.6,32,4.6C27.4,4.6,23.7,8.4,23.7,12.9z M38.3,12.9
	c0,3.5-2.8,6.3-6.3,6.3c-3.5,0-6.3-2.8-6.3-6.3s2.8-6.3,6.3-6.3C35.5,6.6,38.3,9.5,38.3,12.9L38.3,12.9z"/>
<path class="st0" d="M48.9,22.1c-2.9,0-5.7,1-7.8,2.9c-5.4-4-12.8-4-18.1,0c-5-4.3-12.7-3.8-17,1.3C4,28.5,3,31.3,3,34.2v2.9
	c0,0.6,0.4,1,1,1h12.7v3c0,0.6,0.4,1,1,1h28.6c0.6,0,1-0.4,1-1v-3H60c0.6,0,1-0.4,1-1v-2.9C61,27.5,55.6,22.1,48.9,22.1z M5,34.2
	c0-5.6,4.5-10.1,10.1-10.1c2.3,0,4.5,0.8,6.3,2.2l-0.2,0.2l-0.4,0.4c-0.2,0.2-0.4,0.5-0.6,0.7l-0.4,0.5c-0.2,0.3-0.4,0.5-0.6,0.8
	s-0.2,0.3-0.3,0.4c-0.2,0.3-0.4,0.7-0.6,1.1c0,0.1-0.1,0.2-0.1,0.3c-0.2,0.5-0.4,0.9-0.6,1.4c0,0.1-0.1,0.2-0.1,0.4
	c-0.1,0.4-0.2,0.7-0.3,1.1c0,0.2-0.1,0.3-0.1,0.5c-0.1,0.3-0.1,0.7-0.2,1s0,0.4-0.1,0.6s0,0.3-0.1,0.4H5V34.2z M18.7,40v-2.8
	c0,0,0-0.1,0-0.1c0.1-7.3,6.2-13.2,13.5-13.1c3,0.1,5.9,1.1,8.2,3.1c0.3,0.3,0.6,0.6,0.9,0.8c2.5,2.4,3.9,5.7,3.9,9.2
	c0,0,0,0.1,0,0.1V40H18.7z M59,36H47.2c0-0.1,0-0.2,0-0.3s0-0.4-0.1-0.6S47,34.6,47,34.3s-0.1-0.4-0.1-0.6s-0.1-0.5-0.2-0.8
	l-0.2-0.6c-0.1-0.2-0.2-0.5-0.3-0.7s-0.2-0.4-0.2-0.6s-0.2-0.5-0.3-0.7s-0.2-0.4-0.3-0.5s-0.3-0.5-0.4-0.7s-0.2-0.3-0.3-0.5
	s-0.4-0.5-0.6-0.8s-0.2-0.2-0.3-0.4c-0.3-0.4-0.6-0.7-1-1.1l-0.2-0.1c4.3-3.5,10.7-2.8,14.2,1.6c1.4,1.8,2.2,4,2.2,6.2V36z"/>
<path class="st0" d="M48.9,8.2c-3.7,0-6.7,3-6.7,6.7c0,3.7,3,6.7,6.7,6.7s6.7-3,6.7-6.7c0,0,0,0,0,0C55.6,11.2,52.6,8.2,48.9,8.2
	L48.9,8.2z M48.9,19.5c-2.6,0-4.7-2.1-4.7-4.6c0-2.6,2.1-4.7,4.6-4.7c2.6,0,4.7,2.1,4.7,4.6c0,0,0,0,0,0
	C53.6,17.4,51.5,19.5,48.9,19.5z"/>
<path class="st0" d="M8.4,14.8c0,3.7,3,6.6,6.6,6.6s6.6-3,6.6-6.6s-3-6.6-6.6-6.6l0,0C11.4,8.2,8.4,11.2,8.4,14.8z M19.7,14.8
	c0,2.6-2.1,4.6-4.6,4.7c-2.6,0-4.7-2.1-4.7-4.6s2.1-4.7,4.6-4.7h0C17.6,10.2,19.7,12.3,19.7,14.8z"/>
</svg>
