<?xml version="1.0" encoding="utf-8"?>
<!-- Generator: Adobe Illustrator 26.0.1, SVG Export Plug-In . SVG Version: 6.00 Build 0)  -->
<svg version="1.1" id="Calque_1" xmlns="http://www.w3.org/2000/svg" xmlns:xlink="http://www.w3.org/1999/xlink" x="0px" y="0px"
	 viewBox="0 0 100 98.4" style="enable-background:new 0 0 100 98.4;" xml:space="preserve">
<style type="text/css">
	.st0{fill:#FCF7EC;}
</style>
<path class="st0" d="M29.1,15.3c3.2,0,5.8,2.6,5.8,5.8v45.5h6.6v-8.6l29.9,0v8.6h6.6V21.1c0-6.8-5.6-12.4-12.4-12.4
	c-6.8,0-12.4,5.6-12.4,12.4h6.6c0-3.2,2.6-5.8,5.8-5.8c3.2,0,5.8,2.6,5.8,5.8v11.3l-29.9,0V21.1c0-6.8-5.6-12.4-12.4-12.4
	s-12.4,5.6-12.4,12.4h6.6C23.2,17.9,25.8,15.3,29.1,15.3z M41.4,39l29.9,0v12.6l-29.9,0C41.4,51.5,41.4,39,41.4,39z"/>
<path class="st0" d="M28.1,74.6c2.1,1.7,6.4,4.8,10.9,4.8s8.8-3.1,10.9-4.8c2.1,1.7,6.4,4.8,10.9,4.8c4.5,0,8.8-3.1,10.9-4.8
	c2.1,1.7,6.4,4.8,10.9,4.8c6.1,0,12-5.8,12.2-6l-2.6-2.6c-0.1,0-5,4.9-9.6,4.9c-4.6,0-9.6-4.9-9.6-4.9l-1.3-1.3l-1.3,1.3
	c-0.1,0-5,4.9-9.6,4.9s-9.6-4.9-9.6-4.9L50,69.6l-1.3,1.3c0,0-5,4.9-9.6,4.9c-4.6,0-9.6-4.9-9.6-4.9l-1.3-1.3l-1.3,1.3
	c0,0-5,4.9-9.6,4.9s-9.6-4.9-9.6-4.9L5,73.4c0.2,0.2,6.1,6,12.2,6C21.7,79.4,26.1,76.3,28.1,74.6z"/>
<path class="st0" d="M82.8,87.6c-4.6,0-9.6-4.9-9.6-4.9l-1.3-1.3l-1.3,1.3c-0.1,0.1-5,4.9-9.6,4.9s-9.6-4.9-9.6-4.9L50,81.4
	l-1.3,1.3c0,0.1-5,4.9-9.6,4.9c-4.6,0-9.6-4.9-9.6-4.9l-1.3-1.3l-1.3,1.3c0,0.1-5,4.9-9.6,4.9s-9.6-4.9-9.6-4.9L5,85.3
	c0.2,0.2,6.1,6,12.2,6c4.5,0,8.8-3.1,10.9-4.8c2.1,1.7,6.4,4.8,10.9,4.8s8.8-3.1,10.9-4.8c2.1,1.7,6.4,4.8,10.9,4.8
	c4.5,0,8.8-3.1,10.9-4.8c2.1,1.7,6.4,4.8,10.9,4.8c6.1,0,12-5.8,12.2-6l-2.6-2.6C92.4,82.7,87.4,87.6,82.8,87.6z"/>
</svg>
