<?xml version="1.0" encoding="utf-8"?>
<!-- Generator: Adobe Illustrator 26.0.1, SVG Export Plug-In . SVG Version: 6.00 Build 0)  -->
<svg version="1.1" xmlns="http://www.w3.org/2000/svg" xmlns:xlink="http://www.w3.org/1999/xlink" x="0px" y="0px"
	 viewBox="0 0 100 101.7" style="enable-background:new 0 0 100 101.7;" xml:space="preserve">
<style type="text/css">
	.st0{fill:#FCF7EC;}
</style>
<g id="Calque_2">
</g>
<g id="Calque_1">
	<g>
		<ellipse class="st0" cx="82.4" cy="12.8" rx="10.3" ry="10.3"/>
		<path class="st0" d="M83.6,87.9c-1.3,1.5-3.4,2.2-5.3,1.6l-26.4-8l11.6-16.6c1.3-1.8,1.4-4.2,0.5-6.2l-19.1-4l5,6.8l-10.3,16
			c-0.1,0.1-0.1,0.2-0.1,0.2l-27.1-8.2c-2.1-0.6-4.2,0.5-4.8,2.6s0.5,4.2,2.6,4.8L76.1,97c1.2,0.4,2.5,0.5,3.7,0.5
			c3.7,0,7.3-1.6,9.8-4.6c1.4-1.7,1.1-4.1-0.5-5.5C87.4,86,85,86.3,83.6,87.9z"/>
		<path class="st0" d="M16.6,45l57.2,12c0.9,1.2,2.3,1.8,3.7,1.8c0.9,0,1.8-0.2,2.6-0.8c2.2-1.4,2.9-4.4,1.4-6.6l-7.2-11.1
			c0,0,0.7-7.8,0.9-10.3s-0.2-5-1.7-7.1c-1.6-2.2-4.1-3.6-6.8-3.9c-2.7-0.3-5.4,0.6-7.4,2.4L40.1,38.6c-1.3,1.2-2,2.8-2.1,4.5
			l-20.1-4.2c-1.7-0.4-3.3,0.7-3.7,2.4C13.9,43,14.9,44.6,16.6,45z M64.7,41.8c0,0.8,0.2,1.7,0.7,2.4l3.5,5.5l-11.2-2.4L64.7,41.8z"
			/>
	</g>
</g>
</svg>
