<?xml version="1.0" encoding="utf-8"?>
<!-- Generator: Adobe Illustrator 26.0.1, SVG Export Plug-In . SVG Version: 6.00 Build 0)  -->
<svg version="1.1" id="Calque_1" xmlns="http://www.w3.org/2000/svg" xmlns:xlink="http://www.w3.org/1999/xlink" x="0px" y="0px"
	 viewBox="0 0 100 101.6" style="enable-background:new 0 0 100 101.6;" xml:space="preserve">
<style type="text/css">
	.st0{fill:#FCF7EC;}
</style>
<path class="st0" d="M80.7,5.3H19.3c-3.1,0-5.6,2.5-5.6,5.6v78.2c0,3.1,2.5,5.6,5.6,5.6h61.5c3.1,0,5.6-2.5,5.6-5.6V10.9
	C86.3,7.8,83.8,5.3,80.7,5.3L80.7,5.3z M17.3,13.7c0-2.6,2.1-4.8,4.8-4.8h22.3c2.6,0,4.8,2.1,4.8,4.8v53.1c0,2.7-2.1,4.8-4.8,4.8
	c0,0,0,0,0,0H22.1c-2.6,0-4.8-2.2-4.8-4.8V13.7z M82.7,86.3c0,2.6-2.1,4.8-4.8,4.8H22.1c-2.6,0-4.8-2.1-4.8-4.8v-8.4
	c0-2.6,2.1-4.8,4.8-4.8h55.9c2.6,0,4.8,2.2,4.8,4.8V86.3z M82.7,66.8c0,2.6-2.1,4.8-4.8,4.8H55.6c-2.7,0-4.8-2.1-4.8-4.8l0,0V13.7
	c0-2.6,2.2-4.8,4.8-4.8h22.4c2.6,0,4.8,2.1,4.8,4.8V66.8z"/>
<path class="st0" d="M77.9,75.1H22.1c-1.5,0-2.8,1.2-2.8,2.8c0,0,0,0,0,0v8.4c0,1.5,1.2,2.8,2.8,2.8h0h55.9c1.5,0,2.8-1.2,2.8-2.8
	l0,0v-8.4C80.7,76.4,79.5,75.1,77.9,75.1C77.9,75.1,77.9,75.1,77.9,75.1z M50,83.5c-1.5,0-2.8-1.2-2.8-2.8c0-1.5,1.2-2.8,2.8-2.8
	c1.5,0,2.8,1.2,2.8,2.8c0,0,0,0,0,0C52.8,82.3,51.5,83.5,50,83.5z"/>
<path class="st0" d="M77.9,10.9H55.6c-1.5,0-2.8,1.2-2.8,2.8c0,0,0,0,0,0v53.1c0,1.5,1.3,2.8,2.8,2.8c0,0,0,0,0,0h22.4
	c1.5,0,2.8-1.3,2.8-2.8V13.7C80.7,12.1,79.5,10.9,77.9,10.9L77.9,10.9z M58.4,44.4c-1.5,0-2.8-1.3-2.8-2.8c0-1.5,1.3-2.8,2.8-2.8
	c1.5,0,2.8,1.3,2.8,2.8c0,0,0,0,0,0C61.2,43.2,59.9,44.4,58.4,44.4C58.4,44.4,58.4,44.4,58.4,44.4z"/>
<path class="st0" d="M22.1,69.6h22.4c1.5,0,2.8-1.3,2.8-2.8V13.7c0-1.5-1.3-2.8-2.8-2.8H22.1c-1.5,0-2.8,1.2-2.8,2.8v53.1
	C19.3,68.3,20.5,69.6,22.1,69.6z M41.6,38.8c1.5,0,2.8,1.3,2.8,2.8s-1.3,2.8-2.8,2.8s-2.8-1.3-2.8-2.8l0,0
	C38.8,40.1,40.1,38.8,41.6,38.8C41.6,38.8,41.6,38.8,41.6,38.8z"/>
</svg>
