<?xml version="1.0" encoding="utf-8"?>
<!-- Generator: Adobe Illustrator 26.0.1, SVG Export Plug-In . SVG Version: 6.00 Build 0)  -->
<svg version="1.1"
	 id="Calque_1" xmlns:cc="http://creativecommons.org/ns#" xmlns:dc="http://purl.org/dc/elements/1.1/" xmlns:inkscape="http://www.inkscape.org/namespaces/inkscape" xmlns:rdf="http://www.w3.org/1999/02/22-rdf-syntax-ns#" xmlns:sodipodi="http://sodipodi.sourceforge.net/DTD/sodipodi-0.dtd" xmlns:svg="http://www.w3.org/2000/svg"
	 xmlns="http://www.w3.org/2000/svg" xmlns:xlink="http://www.w3.org/1999/xlink" x="0px" y="0px" viewBox="0 0 10.6 10.1"
	 style="enable-background:new 0 0 10.6 10.1;" xml:space="preserve">
<style type="text/css">
	.st0{fill:#FCF7EC;}
</style>
<g>
	<path class="st0" d="M2.2,0.6C1.7,0.6,1.3,1,1.3,1.4V5H1.1C0.9,5,0.8,5.1,0.8,5.2v0.8c0,0.1,0.1,0.3,0.3,0.3h0.1v1.6
		c0,0.5,0.4,0.9,0.8,0.9v0.5c0,0.1,0.1,0.3,0.3,0.3c0.1,0,0.3-0.1,0.3-0.3V8.8H8v0.5c0,0.1,0.1,0.3,0.3,0.3c0.1,0,0.3-0.1,0.3-0.3
		V8.8c0.5,0,0.8-0.4,0.8-0.9V6.3h0.1c0.1,0,0.3-0.1,0.3-0.3V5.2C9.8,5.1,9.7,5,9.5,5H1.8V4.4h0.3v0.1c0,0.1,0.1,0.3,0.3,0.3
		c0.1,0,0.3-0.1,0.3-0.3V3.7c0-0.1-0.1-0.3-0.3-0.3c0,0,0,0,0,0c-0.1,0-0.3,0.1-0.3,0.3c0,0,0,0,0,0v0.1H1.8V1.4
		c0-0.2,0.2-0.4,0.4-0.4h1.1c0.2,0,0.4,0.2,0.4,0.4v0.3C3.2,1.8,2.8,2.3,2.8,2.8V3c0,0.2,0.1,0.3,0.3,0.3c0,0,0,0,0,0h1.7
		C4.9,3.3,5,3.2,5,3.1c0,0,0,0,0,0V2.8c0-0.5-0.4-0.9-0.8-1.1V1.4c0-0.5-0.4-0.9-0.9-0.9L2.2,0.6z M3.9,2.2c0.3,0,0.6,0.2,0.6,0.6
		H3.3C3.3,2.5,3.6,2.2,3.9,2.2z M1.3,5.5h7.9v0.3H1.3V5.5z M1.7,6.3h7.1v1.6c0,0.2-0.2,0.4-0.4,0.4H2.1c-0.2,0-0.4-0.2-0.4-0.4V6.3z
		"/>
</g>
</svg>
