<?xml version="1.0" encoding="utf-8"?>
<!-- Generator: Adobe Illustrator 26.0.1, SVG Export Plug-In . SVG Version: 6.00 Build 0)  -->
<svg version="1.1" id="Calque_1" xmlns="http://www.w3.org/2000/svg" xmlns:xlink="http://www.w3.org/1999/xlink" x="0px" y="0px"
	 viewBox="0 0 100 86.3" style="enable-background:new 0 0 100 86.3;" xml:space="preserve">
<style type="text/css">
	.st0{fill:#FCF7EC;}
</style>
<g>
	<path class="st0" d="M14,74.2v6c0,1.1-0.9,2-2,2s-2-0.9-2-2v-6H14z"/>
	<path class="st0" d="M90,74.2v6c0,1.1-0.9,2-2,2s-2-0.9-2-2v-6H90z"/>
	<path class="st0" d="M84,6.2v8H72c-1.1,0-2,0.9-2,2v32H30v-32c0-1.1-0.9-2-2-2H16v-8H84z"/>
	<path class="st0" d="M91,18.2v52H9v-52h17v32c0,1.1,0.9,2,2,2h44c1.1,0,2-0.9,2-2v-32H91z"/>
</g>
</svg>
