<?xml version="1.0" encoding="utf-8"?>
<!-- Generator: Adobe Illustrator 26.0.1, SVG Export Plug-In . SVG Version: 6.00 Build 0)  -->
<svg version="1.1"
	 id="Calque_1" xmlns:cc="http://creativecommons.org/ns#" xmlns:dc="http://purl.org/dc/elements/1.1/" xmlns:inkscape="http://www.inkscape.org/namespaces/inkscape" xmlns:rdf="http://www.w3.org/1999/02/22-rdf-syntax-ns#" xmlns:sodipodi="http://sodipodi.sourceforge.net/DTD/sodipodi-0.dtd" xmlns:svg="http://www.w3.org/2000/svg"
	 xmlns="http://www.w3.org/2000/svg" xmlns:xlink="http://www.w3.org/1999/xlink" x="0px" y="0px" viewBox="0 0 100 99.8"
	 style="enable-background:new 0 0 100 99.8;" xml:space="preserve">
<style type="text/css">
	.st0{fill:#FCF7EC;}
</style>
<g transform="translate(0,-952.36218)">
	<path class="st0" d="M49.8,956.5c-1,0.1-1.8,1-1.8,2v0.1c-6.5,0.3-15.1,1.9-23.1,5.8C16.1,968.8,8.2,976,6,987.1
		c-0.2,1.2,0.8,2.4,2,2.4h40v17c-5.4,0-10.8,0-16.2,0c-1,0.1-1.8,1-1.8,2v7c0,1,1,2,2,2h16v23c-2.4,0-4.8,0-7.2,0c-1,0-2,1-1.9,2.1
		c0,1,1,2,2.1,1.9h18c1.1,0,2-0.9,2-2c0-1.1-1-2-2-2h-7v-23h16c1,0,2-1,2-2v-7c0-1-1-2-2-2H52v-17h40c1.2,0,2.2-1.2,2-2.4
		c-2.2-11.1-10.1-18.3-18.9-22.7c-7.9-3.9-16.6-5.6-23.1-5.8v-0.1C52,957.4,50.9,956.4,49.8,956.5L49.8,956.5z M50,962.6
		c5.9,0,15.2,1.5,23.3,5.5c7.4,3.6,13.6,9.2,16.1,17.5c-26.3,0-52.5,0-78.8,0c2.5-8.3,8.7-13.9,16.1-17.5
		C34.8,964.1,44.1,962.6,50,962.6z M7.8,1007.5c-1.2,0.1-2.2,1.6-1.7,2.7c2.2,5.8,4,10.8,6,16.3c-0.1,0-0.2,0-0.3,0
		c-1,0-2,1-1.9,2.1c0,1,1,2,2.1,1.9h1.2l-3.1,9.3c-0.3,1,0.3,2.2,1.3,2.5c1,0.3,2.2-0.3,2.5-1.3l3.5-10.6H24v11c0,1.1,0.9,2,2,2
		s2-1,2-2v-11h1c1.1,0,2-0.9,2-2c0-1.1-1-2-2-2c-4.2,0-8.4,0-12.6,0c-0.6-1.7-1.3-3.5-1.8-5H26c1.1,0,2-0.9,2-2s-1-2-2-2H13.1
		c-1.2-3.2-2.5-6.6-3.2-8.7C9.6,1008,8.7,1007.4,7.8,1007.5L7.8,1007.5z M91.9,1007.5c-0.8,0-1.5,0.6-1.8,1.3
		c-0.8,2.1-2.1,5.5-3.2,8.7c-4.3,0-8.7,0-13.1,0c-1,0-2,1-1.9,2.1c0,1,1,2,2.1,1.9h11.4c-0.6,1.7-1.3,3.4-1.8,5H71c-1.1,0-2,0.9-2,2
		c0,1.1,1,2,2,2h1v11c0,1.1,0.9,2,2,2s2-1,2-2v-11h6.6l3.5,10.6c0.3,1,1.5,1.6,2.5,1.3c1-0.3,1.6-1.5,1.3-2.5l-3.1-9.3H88
		c1.1,0,2-0.9,2-2c0-1.1-1-2-2-2h-0.2c1.9-5.4,3.9-10.7,6-16.3C94.3,1009,93.2,1007.4,91.9,1007.5z M34,1010.5h32v3H34L34,1010.5z"
		/>
</g>
</svg>
