<?xml version="1.0" encoding="utf-8"?>
<!-- Generator: Adobe Illustrator 26.0.1, SVG Export Plug-In . SVG Version: 6.00 Build 0)  -->
<svg version="1.1"
	 id="Calque_1" xmlns:cc="http://creativecommons.org/ns#" xmlns:dc="http://purl.org/dc/elements/1.1/" xmlns:inkscape="http://www.inkscape.org/namespaces/inkscape" xmlns:rdf="http://www.w3.org/1999/02/22-rdf-syntax-ns#" xmlns:sodipodi="http://sodipodi.sourceforge.net/DTD/sodipodi-0.dtd" xmlns:svg="http://www.w3.org/2000/svg"
	 xmlns="http://www.w3.org/2000/svg" xmlns:xlink="http://www.w3.org/1999/xlink" x="0px" y="0px" viewBox="0 0 100 96.3"
	 style="enable-background:new 0 0 100 96.3;" xml:space="preserve">
<style type="text/css">
	.st0{fill:#FCF7EC;stroke:#FFFFFF;stroke-width:1.372483e-02;stroke-linecap:round;stroke-linejoin:round;}
</style>
<g transform="translate(0,-952.36216)">
	<path class="st0" d="M18.8,956.2c-3.3,0-5.9,2.6-5.9,5.9v0.4v39.4v26.5v8.7v0.4v5.9h5.9h11.8h7.2h6.9h5.9v-7.9
		c0.1-6.4,1.1-9.6,8.5-9.6h3.7c13.3,0,24.1-10.6,24.4-23.9H33.7v-39.4v-0.4c0-3.3-2.6-5.9-5.9-5.9H18.8z M43.9,991.3
		c-3.3,0-5.9,2.6-5.9,5.9v0.4h25.7h11.2h12.2v-0.4c0-3.3-2.6-5.9-5.9-5.9h-6.3H63.7H43.9z"/>
</g>
</svg>
