<?xml version="1.0" encoding="utf-8"?>
<!-- Generator: Adobe Illustrator 26.0.1, SVG Export Plug-In . SVG Version: 6.00 Build 0)  -->
<svg version="1.1" xmlns="http://www.w3.org/2000/svg" xmlns:xlink="http://www.w3.org/1999/xlink" x="0px" y="0px"
	 viewBox="0 0 100 82.9" style="enable-background:new 0 0 100 82.9;" xml:space="preserve">
<style type="text/css">
	.st0{fill:#FCF7EC;}
</style>
<g id="Calque_2">
</g>
<g id="Calque_1">
	<g>
		<path class="st0" d="M95.4,22C83.3,9.9,67.2,3.2,50,3.2l0,0C32.8,3.2,16.7,9.9,4.6,22c-2.8,2.8-2.8,7.2,0,10
			c1.4,1.4,3.2,2.1,5,2.1s3.6-0.7,5-2.1c9.4-9.5,22-14.7,35.4-14.7l0,0c13.4,0,26,5.2,35.4,14.7c2.8,2.8,7.2,2.8,10,0
			C98.2,29.2,98.2,24.7,95.4,22z"/>
		<path class="st0" d="M23.4,40.9c-2.8,2.8-2.8,7.2,0,10c1.4,1.4,3.2,2.1,5,2.1s3.6-0.7,5-2.1c9.2-9.2,24.1-9.2,33.2-0.1
			c2.7,2.8,7.2,2.8,10,0s2.8-7.2,0-10C61.9,26.2,38.1,26.2,23.4,40.9z"/>
		<circle class="st0" cx="50.1" cy="67.4" r="11"/>
	</g>
</g>
</svg>
